<svg xmlns="http://www.w3.org/2000/svg" viewBox="0 0 100 100">
  <!-- galacto mark: a simple two-arm spiral galaxy (gold bulge, blue arms). The
       round disk frames it for a browser tab; the app icons are full-bleed. -->
  <defs>
    <radialGradient id="disk"><stop offset="0" stop-color="#0e1640"/><stop offset=".6" stop-color="#090e22"/><stop offset="1" stop-color="#05060d"/></radialGradient>
    <radialGradient id="glow"><stop offset="0" stop-color="#5274e0" stop-opacity=".55"/><stop offset=".5" stop-color="#314a98" stop-opacity=".2"/><stop offset="1" stop-color="#2a3e86" stop-opacity="0"/></radialGradient>
    <radialGradient id="arm" gradientUnits="userSpaceOnUse" cx="50" cy="50" r="44"><stop offset=".16" stop-color="#d6c6ff"/><stop offset=".5" stop-color="#88adff"/><stop offset=".85" stop-color="#92e6ff"/><stop offset="1" stop-color="#92e6ff" stop-opacity=".5"/></radialGradient>
    <radialGradient id="halo"><stop offset="0" stop-color="#ffd98e" stop-opacity=".55"/><stop offset=".5" stop-color="#ffc06a" stop-opacity=".18"/><stop offset="1" stop-color="#ffc06a" stop-opacity="0"/></radialGradient>
    <radialGradient id="bulge"><stop offset="0" stop-color="#fff"/><stop offset=".5" stop-color="#ffe3ad"/><stop offset=".82" stop-color="#ffc06a"/><stop offset="1" stop-color="#ffb24a" stop-opacity="0"/></radialGradient>
  </defs>
  <g><circle cx="50" cy="50" r="49" fill="url(#disk)"/><circle cx="50" cy="50" r="44" fill="url(#glow)"/><g fill="url(#arm)"><path d="M58.53 55.23 L58.36 56.87 L57.89 58.54 L57.11 60.21 L56.01 61.79 L54.59 63.25 L52.89 64.52 L50.91 65.56 L48.71 66.30 L46.33 66.72 L43.81 66.77 L41.28 66.30 L38.93 65.23 L36.70 63.82 L34.64 62.10 L32.80 60.08 L31.22 57.78 L29.93 55.23 L28.98 52.48 L28.39 49.57 L28.20 46.54 L28.42 43.45 L29.07 40.35 L30.16 37.29 L31.68 34.35 L33.64 31.58 L36.00 29.03 L38.74 26.78 L41.84 24.88 L45.25 23.37 L48.92 22.32 L52.79 21.75 L56.80 21.72 L60.87 22.24 L64.94 23.34 L68.92 25.02 L72.73 27.28 L76.30 30.10 L79.52 33.47 L82.34 37.35 L84.66 41.69 L86.41 46.42 L87.53 51.48 L87.97 56.79 L87.67 62.25 L86.59 67.76 L84.73 73.21 L82.06 78.50 L78.57 83.46 L78.57 83.46 L81.71 78.19 L84.05 72.76 L85.57 67.26 L86.30 61.80 L86.27 56.49 L85.53 51.40 L84.15 46.64 L82.19 42.28 L79.74 38.37 L76.87 34.96 L73.68 32.09 L70.24 29.77 L66.65 28.02 L62.98 26.83 L59.33 26.19 L55.75 26.06 L52.33 26.43 L49.11 27.23 L46.15 28.44 L43.50 29.98 L41.18 31.81 L39.22 33.86 L37.63 36.07 L36.42 38.40 L35.59 40.77 L35.11 43.13 L34.99 45.44 L35.18 47.65 L35.66 49.72 L36.41 51.61 L37.37 53.29 L38.50 54.76 L39.78 55.99 L41.16 56.97 L42.59 57.71 L44.04 58.20 L45.47 58.47 L46.76 58.78 L48.01 59.07 L49.27 59.22 L50.54 59.22 L51.80 59.08 L53.05 58.80 L54.26 58.37 L55.43 57.80 L56.54 57.08 L57.58 56.22 L58.53 55.23 Z"/><path d="M41.47 44.77 L41.64 43.13 L42.11 41.46 L42.89 39.79 L43.99 38.21 L45.41 36.75 L47.11 35.48 L49.09 34.44 L51.29 33.70 L53.67 33.28 L56.19 33.23 L58.72 33.70 L61.07 34.77 L63.30 36.18 L65.36 37.90 L67.20 39.92 L68.78 42.22 L70.07 44.77 L71.02 47.52 L71.61 50.43 L71.80 53.46 L71.58 56.55 L70.93 59.65 L69.84 62.71 L68.32 65.65 L66.36 68.42 L64.00 70.97 L61.26 73.22 L58.16 75.12 L54.75 76.63 L51.08 77.68 L47.21 78.25 L43.20 78.28 L39.13 77.76 L35.06 76.66 L31.08 74.98 L27.27 72.72 L23.70 69.90 L20.48 66.53 L17.66 62.65 L15.34 58.31 L13.59 53.58 L12.47 48.52 L12.03 43.21 L12.33 37.75 L13.41 32.24 L15.27 26.79 L17.94 21.50 L21.43 16.54 L21.43 16.54 L18.29 21.81 L15.95 27.24 L14.43 32.74 L13.70 38.20 L13.73 43.51 L14.47 48.60 L15.85 53.36 L17.81 57.72 L20.26 61.63 L23.13 65.04 L26.32 67.91 L29.76 70.23 L33.35 71.98 L37.02 73.17 L40.67 73.81 L44.25 73.94 L47.67 73.57 L50.89 72.77 L53.85 71.56 L56.50 70.02 L58.82 68.19 L60.78 66.14 L62.37 63.93 L63.58 61.60 L64.41 59.23 L64.89 56.87 L65.01 54.56 L64.82 52.35 L64.34 50.28 L63.59 48.39 L62.63 46.71 L61.50 45.24 L60.22 44.01 L58.84 43.03 L57.41 42.29 L55.96 41.80 L54.53 41.53 L53.24 41.22 L51.99 40.93 L50.73 40.78 L49.46 40.78 L48.20 40.92 L46.95 41.20 L45.74 41.63 L44.57 42.20 L43.46 42.92 L42.42 43.78 L41.47 44.77 Z"/></g><circle cx="50" cy="50" r="22" fill="url(#halo)"/><circle cx="50" cy="50" r="13" fill="url(#bulge)"/></g>
</svg>
