<svg xmlns="http://www.w3.org/2000/svg" viewBox="0 0 1024 1024">
  <!-- Maskable app icon: the galaxy mark kept well inside the safe zone (~57% of
       the canvas) on a full-bleed deep-space square, so any launcher mask (circle,
       squircle, rounded square) never clips it. Source for icon-maskable-512.png. -->
  <defs>
    <radialGradient id="bg" cx="50%" cy="50%" r="72%">
      <stop offset="0%" stop-color="#0b1030" />
      <stop offset="100%" stop-color="#05060d" />
    </radialGradient>
    <radialGradient id="galaxy" cx="50%" cy="50%" r="50%">
      <stop offset="0%" stop-color="#1a1a2e" />
      <stop offset="30%" stop-color="#16213e" />
      <stop offset="60%" stop-color="#0f3460" />
      <stop offset="100%" stop-color="#533483" />
    </radialGradient>
    <radialGradient id="stars" cx="50%" cy="50%" r="50%">
      <stop offset="0%" stop-color="#ffffff" stop-opacity="0.8" />
      <stop offset="100%" stop-color="#ffffff" stop-opacity="0" />
    </radialGradient>
  </defs>

  <rect width="1024" height="1024" fill="url(#bg)" />

  <!-- Galaxy mark (100×100 artwork), scaled to ~57% and centred (within the
       maskable safe zone). -->
  <g transform="translate(187,187) scale(6.5)">
    <circle cx="50" cy="50" r="45" fill="url(#galaxy)" stroke="#533483" stroke-width="2" />
    <path d="M50 50 Q60 30 70 50 Q60 70 50 50" fill="none" stroke="#e94560" stroke-width="1.5" opacity="0.7" />
    <path d="M50 50 Q40 30 30 50 Q40 70 50 50" fill="none" stroke="#e94560" stroke-width="1.5" opacity="0.7" />
    <path d="M50 50 Q70 40 50 30 Q30 40 50 50" fill="none" stroke="#e94560" stroke-width="1.5" opacity="0.7" />
    <path d="M50 50 Q70 60 50 70 Q30 60 50 50" fill="none" stroke="#e94560" stroke-width="1.5" opacity="0.7" />
    <circle cx="35" cy="25" r="1" fill="url(#stars)" />
    <circle cx="65" cy="35" r="0.8" fill="url(#stars)" />
    <circle cx="75" cy="60" r="1.2" fill="url(#stars)" />
    <circle cx="45" cy="75" r="0.6" fill="url(#stars)" />
    <circle cx="25" cy="65" r="0.9" fill="url(#stars)" />
    <circle cx="55" cy="20" r="0.7" fill="url(#stars)" />
    <circle cx="80" cy="45" r="0.5" fill="url(#stars)" />
    <circle cx="20" cy="40" r="1.1" fill="url(#stars)" />
    <circle cx="60" cy="80" r="0.8" fill="url(#stars)" />
    <circle cx="30" cy="80" r="0.6" fill="url(#stars)" />
    <circle cx="50" cy="50" r="3" fill="#ffd700" opacity="0.9" />
    <circle cx="50" cy="50" r="1.5" fill="#ffffff" />
  </g>
</svg>
